<svg width="42" height="42" viewBox="0 0 42 42" fill="none" xmlns="http://www.w3.org/2000/svg">
<path fill-rule="evenodd" clip-rule="evenodd" d="M16.4153 14.1408C15.188 13.8382 13.959 13.9353 12.662 14.1336C12.662 16.3602 12.6573 18.527 12.6743 20.6941C12.675 20.805 12.8447 20.998 12.9547 21.0128C14.369 21.2003 15.7757 21.2153 17.0983 20.5825C18.4667 19.9281 19.1637 18.5597 18.983 16.9531C18.819 15.4902 17.9367 14.5161 16.4153 14.1408ZM42 21.4529V1.59874C42 0.912916 42.0077 0.851074 41.3293 0.851074H0.826333C0.166667 0.851074 0 0.913243 0 1.56634V41.3246C0 41.9849 0.084 41.9859 0.736333 41.9859C14.2547 41.9863 27.8133 41.983 41.3317 41.998C41.856 41.9987 41.9967 41.8616 41.9953 41.357C41.9773 34.7223 42 28.0869 42 21.4529ZM18.4507 23.3637C16.5983 24.0123 14.6667 24.0486 12.6667 23.8964V31.2811H9V30.8224C9 24.6398 8.971 18.458 8.95333 12.2757C8.95133 11.7624 9.03433 11.5143 9.62367 11.4554C12.401 11.1767 15.1627 10.8632 17.9243 11.499C20.893 12.1818 22.6047 14.1084 22.7347 16.7702C22.8957 20.0665 21.42 22.3242 18.4507 23.3637ZM33.2207 27.5369C33.0793 29.4252 31.9947 30.665 30.2157 31.2644C27.835 32.0667 25.4673 31.8805 23.1407 30.9729C22.7597 30.824 22.686 30.6355 22.8117 30.2543C23.0407 29.5587 23.2083 28.8434 23.385 28.1975C24.3687 28.4809 25.304 28.8346 26.273 29.0018C26.9573 29.1199 27.697 29.0505 28.3927 28.9436C29.0163 28.8474 29.465 28.4318 29.5673 27.7748C29.6713 27.107 29.4663 26.5285 28.8657 26.1731C28.3883 25.8911 27.8623 25.6892 27.358 25.4526C26.547 25.0721 25.6827 24.7737 24.9347 24.2976C21.991 22.4237 22.9493 18.937 24.9137 17.6239C25.9647 16.9217 27.1277 16.6102 28.3727 16.5674C29.837 16.517 31.247 16.765 32.632 17.4256L31.9003 19.9742C31.3203 19.7727 30.7803 19.5109 30.2103 19.4068C29.534 19.2832 28.8247 19.2141 28.142 19.2688C27.2267 19.3424 26.6907 19.9624 26.6907 20.7314C26.6907 21.1868 26.8667 21.5723 27.2537 21.7931C27.809 22.1102 28.3983 22.3716 28.9823 22.637C29.6143 22.924 30.2817 23.1445 30.89 23.472C32.5133 24.3457 33.3583 25.697 33.2207 27.5369Z" fill="#00E55E"/>
</svg>
