<svg width="2528" height="1392" viewBox="0 0 2528 1392" fill="none" xmlns="http://www.w3.org/2000/svg">
<path d="M0 0H2528V1392H0V0Z" fill="#2B2D3D"/>
<path d="M930.192 729.224H960.272V741H915.6V652.04H930.192V729.224ZM1003.07 742.152C996.411 742.152 990.395 740.659 985.019 737.672C979.643 734.6 975.419 730.333 972.347 724.872C969.275 719.325 967.739 712.925 967.739 705.672C967.739 698.504 969.318 692.147 972.475 686.6C975.632 681.053 979.942 676.787 985.403 673.8C990.864 670.813 996.966 669.32 1003.71 669.32C1010.45 669.32 1016.55 670.813 1022.01 673.8C1027.47 676.787 1031.78 681.053 1034.94 686.6C1038.1 692.147 1039.68 698.504 1039.68 705.672C1039.68 712.84 1038.05 719.197 1034.81 724.744C1031.57 730.291 1027.13 734.6 1021.5 737.672C1015.95 740.659 1009.81 742.152 1003.07 742.152ZM1003.07 729.48C1006.82 729.48 1010.32 728.584 1013.56 726.792C1016.89 725 1019.58 722.312 1021.63 718.728C1023.68 715.144 1024.7 710.792 1024.7 705.672C1024.7 700.552 1023.72 696.243 1021.76 692.744C1019.79 689.16 1017.19 686.472 1013.95 684.68C1010.7 682.888 1007.21 681.992 1003.45 681.992C999.696 681.992 996.198 682.888 992.955 684.68C989.798 686.472 987.28 689.16 985.403 692.744C983.526 696.243 982.587 700.552 982.587 705.672C982.587 713.267 984.507 719.155 988.347 723.336C992.272 727.432 997.179 729.48 1003.07 729.48ZM1049.24 705.416C1049.24 698.333 1050.69 692.061 1053.59 686.6C1056.57 681.139 1060.59 676.915 1065.62 673.928C1070.74 670.856 1076.37 669.32 1082.52 669.32C1088.06 669.32 1092.88 670.429 1096.98 672.648C1101.16 674.781 1104.49 677.469 1106.96 680.712V670.472H1121.68V741H1106.96V730.504C1104.49 733.832 1101.12 736.605 1096.85 738.824C1092.59 741.043 1087.72 742.152 1082.26 742.152C1076.2 742.152 1070.65 740.616 1065.62 737.544C1060.59 734.387 1056.57 730.035 1053.59 724.488C1050.69 718.856 1049.24 712.499 1049.24 705.416ZM1106.96 705.672C1106.96 700.808 1105.94 696.584 1103.89 693C1101.93 689.416 1099.33 686.685 1096.08 684.808C1092.84 682.931 1089.34 681.992 1085.59 681.992C1081.83 681.992 1078.33 682.931 1075.09 684.808C1071.85 686.6 1069.2 689.288 1067.16 692.872C1065.19 696.371 1064.21 700.552 1064.21 705.416C1064.21 710.28 1065.19 714.547 1067.16 718.216C1069.2 721.885 1071.85 724.701 1075.09 726.664C1078.42 728.541 1081.92 729.48 1085.59 729.48C1089.34 729.48 1092.84 728.541 1096.08 726.664C1099.33 724.787 1101.93 722.056 1103.89 718.472C1105.94 714.803 1106.96 710.536 1106.96 705.672ZM1135.99 705.416C1135.99 698.333 1137.44 692.061 1140.34 686.6C1143.32 681.139 1147.34 676.915 1152.37 673.928C1157.49 670.856 1163.16 669.32 1169.39 669.32C1174 669.32 1178.52 670.344 1182.96 672.392C1187.48 674.355 1191.07 677 1193.71 680.328V646.28H1208.43V741H1193.71V730.376C1191.32 733.789 1188 736.605 1183.73 738.824C1179.55 741.043 1174.73 742.152 1169.27 742.152C1163.12 742.152 1157.49 740.616 1152.37 737.544C1147.34 734.387 1143.32 730.035 1140.34 724.488C1137.44 718.856 1135.99 712.499 1135.99 705.416ZM1193.71 705.672C1193.71 700.808 1192.69 696.584 1190.64 693C1188.68 689.416 1186.08 686.685 1182.83 684.808C1179.59 682.931 1176.09 681.992 1172.34 681.992C1168.58 681.992 1165.08 682.931 1161.84 684.808C1158.6 686.6 1155.95 689.288 1153.91 692.872C1151.94 696.371 1150.96 700.552 1150.96 705.416C1150.96 710.28 1151.94 714.547 1153.91 718.216C1155.95 721.885 1158.6 724.701 1161.84 726.664C1165.17 728.541 1168.67 729.48 1172.34 729.48C1176.09 729.48 1179.59 728.541 1182.83 726.664C1186.08 724.787 1188.68 722.056 1190.64 718.472C1192.69 714.803 1193.71 710.536 1193.71 705.672ZM1235.02 661.128C1232.38 661.128 1230.16 660.232 1228.37 658.44C1226.58 656.648 1225.68 654.429 1225.68 651.784C1225.68 649.139 1226.58 646.92 1228.37 645.128C1230.16 643.336 1232.38 642.44 1235.02 642.44C1237.58 642.44 1239.76 643.336 1241.55 645.128C1243.34 646.92 1244.24 649.139 1244.24 651.784C1244.24 654.429 1243.34 656.648 1241.55 658.44C1239.76 660.232 1237.58 661.128 1235.02 661.128ZM1242.19 670.472V741H1227.6V670.472H1242.19ZM1296.93 669.32C1302.48 669.32 1307.43 670.472 1311.78 672.776C1316.22 675.08 1319.68 678.493 1322.15 683.016C1324.62 687.539 1325.86 693 1325.86 699.4V741H1311.4V701.576C1311.4 695.261 1309.82 690.44 1306.66 687.112C1303.5 683.699 1299.2 681.992 1293.73 681.992C1288.27 681.992 1283.92 683.699 1280.68 687.112C1277.52 690.44 1275.94 695.261 1275.94 701.576V741H1261.35V670.472H1275.94V678.536C1278.33 675.635 1281.36 673.373 1285.03 671.752C1288.78 670.131 1292.75 669.32 1296.93 669.32ZM1372.89 669.32C1378.35 669.32 1383.17 670.429 1387.36 672.648C1391.62 674.781 1394.95 677.469 1397.34 680.712V670.472H1412.06V742.152C1412.06 748.637 1410.69 754.397 1407.96 759.432C1405.23 764.552 1401.26 768.563 1396.06 771.464C1390.94 774.365 1384.8 775.816 1377.63 775.816C1368.07 775.816 1360.13 773.555 1353.82 769.032C1347.5 764.595 1343.92 758.536 1343.07 750.856H1357.53C1358.64 754.525 1360.99 757.469 1364.57 759.688C1368.24 761.992 1372.59 763.144 1377.63 763.144C1383.52 763.144 1388.25 761.352 1391.84 757.768C1395.5 754.184 1397.34 748.979 1397.34 742.152V730.376C1394.86 733.704 1391.49 736.52 1387.23 738.824C1383.05 741.043 1378.27 742.152 1372.89 742.152C1366.75 742.152 1361.12 740.616 1356 737.544C1350.96 734.387 1346.95 730.035 1343.96 724.488C1341.06 718.856 1339.61 712.499 1339.61 705.416C1339.61 698.333 1341.06 692.061 1343.96 686.6C1346.95 681.139 1350.96 676.915 1356 673.928C1361.12 670.856 1366.75 669.32 1372.89 669.32ZM1397.34 705.672C1397.34 700.808 1396.32 696.584 1394.27 693C1392.3 689.416 1389.7 686.685 1386.46 684.808C1383.22 682.931 1379.72 681.992 1375.96 681.992C1372.21 681.992 1368.71 682.931 1365.47 684.808C1362.22 686.6 1359.58 689.288 1357.53 692.872C1355.57 696.371 1354.59 700.552 1354.59 705.416C1354.59 710.28 1355.57 714.547 1357.53 718.216C1359.58 721.885 1362.22 724.701 1365.47 726.664C1368.8 728.541 1372.29 729.48 1375.96 729.48C1379.72 729.48 1383.22 728.541 1386.46 726.664C1389.7 724.787 1392.3 722.056 1394.27 718.472C1396.32 714.803 1397.34 710.536 1397.34 705.672ZM1437.11 741.896C1434.47 741.896 1432.25 741 1430.46 739.208C1428.67 737.416 1427.77 735.197 1427.77 732.552C1427.77 729.907 1428.67 727.688 1430.46 725.896C1432.25 724.104 1434.47 723.208 1437.11 723.208C1439.67 723.208 1441.85 724.104 1443.64 725.896C1445.43 727.688 1446.33 729.907 1446.33 732.552C1446.33 735.197 1445.43 737.416 1443.64 739.208C1441.85 741 1439.67 741.896 1437.11 741.896ZM1467.99 741.896C1465.34 741.896 1463.12 741 1461.33 739.208C1459.54 737.416 1458.64 735.197 1458.64 732.552C1458.64 729.907 1459.54 727.688 1461.33 725.896C1463.12 724.104 1465.34 723.208 1467.99 723.208C1470.55 723.208 1472.72 724.104 1474.52 725.896C1476.31 727.688 1477.2 729.907 1477.2 732.552C1477.2 735.197 1476.31 737.416 1474.52 739.208C1472.72 741 1470.55 741.896 1467.99 741.896ZM1498.86 741.896C1496.22 741.896 1494 741 1492.21 739.208C1490.42 737.416 1489.52 735.197 1489.52 732.552C1489.52 729.907 1490.42 727.688 1492.21 725.896C1494 724.104 1496.22 723.208 1498.86 723.208C1501.42 723.208 1503.6 724.104 1505.39 725.896C1507.18 727.688 1508.08 729.907 1508.08 732.552C1508.08 735.197 1507.18 737.416 1505.39 739.208C1503.6 741 1501.42 741.896 1498.86 741.896Z" fill="white"/>
</svg>
