<svg width="328" height="71" viewBox="0 0 328 71" fill="none" xmlns="http://www.w3.org/2000/svg">
<path d="M13 71H0.1875V0.625H67.6875C72.5208 0.625 77.0625 1.5625 81.3125 3.4375C85.5625 5.27083 89.25 7.79167 92.375 11C95.5417 14.1667 98.0417 17.8958 99.875 22.1875C101.708 26.4375 102.625 30.9792 102.625 35.8125V71H89.8125V35.8125C89.8125 32.7292 89.2292 29.8333 88.0625 27.125C86.8958 24.4167 85.3125 22.0625 83.3125 20.0625C81.3125 18.0208 78.9583 16.4167 76.25 15.25C73.5833 14.0417 70.7292 13.4167 67.6875 13.375H57.8125V71H45V13.375H13V71ZM200.125 71H136.125C133 71 130.083 70.4167 127.375 69.25C124.667 68.0833 122.292 66.5 120.25 64.5C118.208 62.4583 116.604 60.0833 115.438 57.375C114.271 54.625 113.688 51.7083 113.688 48.625C113.688 45.5 114.271 42.5833 115.438 39.875C116.604 37.1667 118.208 34.7917 120.25 32.75C122.292 30.7083 124.667 29.1042 127.375 27.9375C130.083 26.7708 133 26.1875 136.125 26.1875H180.875V39H136.125C134.792 39 133.542 39.2708 132.375 39.8125C131.208 40.3125 130.188 41 129.312 41.875C128.438 42.75 127.75 43.7708 127.25 44.9375C126.75 46.1042 126.5 47.3333 126.5 48.625C126.5 49.9583 126.75 51.2083 127.25 52.375C127.75 53.5 128.438 54.5 129.312 55.375C130.188 56.25 131.208 56.9375 132.375 57.4375C133.542 57.9375 134.792 58.1875 136.125 58.1875H187.312V23C187.312 21.7083 187.042 20.4792 186.5 19.3125C186 18.1458 185.312 17.125 184.438 16.25C183.562 15.375 182.542 14.6875 181.375 14.1875C180.208 13.6458 178.979 13.375 177.688 13.375H126.5V0.625H177.688C180.812 0.625 183.729 1.20833 186.438 2.375C189.146 3.54167 191.521 5.14583 193.562 7.1875C195.604 9.1875 197.208 11.5417 198.375 14.25C199.542 16.9583 200.125 19.875 200.125 23V71ZM300.625 71H282.375L254.938 44.5L228.062 71H209.75L246.125 35.9375L209.75 0.625H228.062L300.625 71ZM300.625 0.625L270.188 30.3125L261 22.125L282.375 0.625H300.625Z" fill="white"/>
<path d="M327.875 61.375C327.875 62.7083 327.604 63.9583 327.062 65.125C326.562 66.2917 325.875 67.3125 325 68.1875C324.125 69.0625 323.104 69.75 321.938 70.25C320.771 70.75 319.542 71 318.25 71C316.917 71 315.667 70.75 314.5 70.25C313.375 69.75 312.375 69.0625 311.5 68.1875C310.625 67.3125 309.938 66.2917 309.438 65.125C308.938 63.9583 308.688 62.7083 308.688 61.375C308.688 60.0833 308.938 58.8542 309.438 57.6875C309.938 56.5208 310.625 55.5 311.5 54.625C312.375 53.75 313.375 53.0625 314.5 52.5625C315.667 52.0625 316.917 51.8125 318.25 51.8125C319.542 51.8125 320.771 52.0625 321.938 52.5625C323.104 53.0625 324.125 53.75 325 54.625C325.875 55.5 326.562 56.5208 327.062 57.6875C327.604 58.8542 327.875 60.0833 327.875 61.375Z" fill="#6C42F9"/>
</svg>
