<svg width="135" height="38" viewBox="0 0 135 38" fill="none" xmlns="http://www.w3.org/2000/svg">
<path d="M81.136 23.888C80.688 24.72 80.096 25.376 79.36 25.856C78.656 26.304 77.824 26.528 76.864 26.528C75.36 26.528 74.16 26.096 73.264 25.232C72.4 24.336 71.968 23.12 71.968 21.584V9.2C71.84 7.632 71.456 6.528 70.816 5.888C70.176 5.248 69.216 4.928 67.936 4.928C66.656 4.928 65.504 5.248 64.48 5.888C63.488 6.496 62.608 7.552 61.84 9.056V26.048H57.904V9.824C57.904 8.256 57.568 7.056 56.896 6.224C56.224 5.36 55.232 4.928 53.92 4.928C52.608 4.928 51.392 5.312 50.272 6.08C49.152 6.816 48.336 7.76 47.824 8.912V26.048H43.888V9.2C43.888 6.704 43.216 4.88 41.872 3.728L44.512 1.28C45.024 1.568 45.536 2.032 46.048 2.672C46.56 3.28 46.976 3.984 47.296 4.784C48.192 3.728 49.232 2.896 50.416 2.288C51.6 1.68 52.848 1.376 54.16 1.376C55.568 1.376 56.864 1.728 58.048 2.432C59.232 3.136 60.144 4.08 60.784 5.264C61.712 4.08 62.8 3.136 64.048 2.432C65.296 1.728 66.608 1.376 67.984 1.376C70.384 1.376 72.304 2.032 73.744 3.344C75.184 4.656 75.904 6.576 75.904 9.104V21.728C75.904 22.08 76.016 22.384 76.24 22.64C76.464 22.864 76.752 22.976 77.104 22.976C77.616 22.976 78.016 22.688 78.304 22.112L81.136 23.888ZM92.9744 26.48C90.8304 26.48 88.9744 25.92 87.4064 24.8C85.8704 23.648 84.6864 22.112 83.8544 20.192C83.0544 18.272 82.6544 16.192 82.6544 13.952C82.6544 11.52 83.1184 9.344 84.0464 7.424C84.9744 5.504 86.3344 3.984 88.1264 2.864C89.9504 1.744 92.1264 1.184 94.6544 1.184C95.3904 1.184 96.3024 1.232 97.3904 1.328C98.5104 1.392 99.4544 1.488 100.222 1.616L103.438 1.616V21.536C103.438 21.984 103.534 22.336 103.726 22.592C103.95 22.816 104.27 22.928 104.686 22.928C105.23 22.928 105.662 22.656 105.982 22.112L108.67 23.888C108.254 24.688 107.646 25.328 106.846 25.808C106.078 26.256 105.246 26.48 104.35 26.48C103.166 26.48 102.142 26.144 101.278 25.472C100.446 24.768 99.9984 23.952 99.9344 23.024V23.072C99.3904 24.128 98.4784 24.96 97.1984 25.568C95.9184 26.176 94.5104 26.48 92.9744 26.48ZM93.2624 22.928C94.5424 22.928 95.6784 22.592 96.6704 21.92C97.6624 21.248 98.4144 20.4 98.9264 19.376C99.2144 18.832 99.3744 18.368 99.4064 17.984C99.4704 17.6 99.5024 17.168 99.5024 16.688V5.072L97.4864 4.928C95.8864 4.8 94.8144 4.736 94.2704 4.736C91.8384 4.736 89.9504 5.6 88.6064 7.328C87.2624 9.056 86.5904 11.248 86.5904 13.904C86.5904 16.368 87.1824 18.496 88.3664 20.288C89.5504 22.048 91.1824 22.928 93.2624 22.928ZM120.468 10.64L125.94 1.568L130.5 1.568L122.82 13.856L128.148 21.92C128.34 22.272 128.516 22.512 128.676 22.64C128.868 22.736 129.076 22.8 129.3 22.832H129.396C129.78 22.832 130.1 22.624 130.356 22.208L133.524 24.128C133.076 24.928 132.468 25.568 131.7 26.048C130.932 26.528 130.1 26.768 129.204 26.768C128.404 26.768 127.636 26.56 126.9 26.144C126.164 25.76 125.572 25.2 125.124 24.464L120.468 16.976L114.852 26.048H110.34L118.02 13.76L110.244 1.568L114.852 1.568L120.468 10.64Z" fill="white"/>
<path d="M52.4853 36.0586C52.0164 36.0586 51.6334 36.0195 51.3364 35.9414C51.0473 35.8632 50.8323 35.7069 50.6917 35.4725C50.5588 35.238 50.4924 34.8902 50.4924 34.4291V31.9087C50.4924 31.6742 50.5236 31.5179 50.5862 31.4397C50.6565 31.3616 50.7893 31.3225 50.9847 31.3225H51.9226V34.4291C51.9226 34.7652 51.9851 34.984 52.1101 35.0856C52.243 35.1872 52.4423 35.238 52.708 35.238C52.9972 35.238 53.2043 35.1872 53.3293 35.0856C53.4622 34.9762 53.5286 34.7964 53.5286 34.5463V31.3225H54.9588V34.5463C54.9588 34.7964 55.0214 34.9762 55.1464 35.0856C55.2793 35.1872 55.4825 35.238 55.756 35.238C56.0452 35.238 56.2523 35.1872 56.3773 35.0856C56.5024 34.984 56.5649 34.7652 56.5649 34.4291V31.3225H57.4676C57.6864 31.3225 57.8271 31.3616 57.8896 31.4397C57.9521 31.5101 57.9834 31.6664 57.9834 31.9087V34.4291C57.9834 34.8746 57.9169 35.2146 57.7841 35.449C57.6512 35.6757 57.4324 35.832 57.1276 35.9179C56.8306 36.0039 56.4281 36.0469 55.9201 36.0469C55.4121 36.0469 55.0057 35.9687 54.7009 35.8124C54.4039 35.6483 54.2242 35.3787 54.1617 35.0035H54.3258C54.2711 35.2693 54.1734 35.4803 54.0327 35.6366C53.892 35.7851 53.6927 35.8945 53.4348 35.9648C53.1848 36.0274 52.8682 36.0586 52.4853 36.0586ZM61.5197 36.0703C61.0039 36.0703 60.5779 36.0391 60.2419 35.9766C59.9058 35.9062 59.6401 35.789 59.4447 35.6249C59.2493 35.4607 59.1087 35.2263 59.0227 34.9215C58.9367 34.6167 58.8937 34.2259 58.8937 33.7492C58.8937 33.1552 58.9719 32.6785 59.1282 32.319C59.2923 31.9595 59.5737 31.6977 59.9723 31.5335C60.3787 31.3694 60.9414 31.2873 61.6604 31.2873C62.2231 31.2873 62.6725 31.3499 63.0085 31.4749C63.3446 31.6 63.5868 31.7993 63.7353 32.0728C63.8838 32.3385 63.9581 32.6824 63.9581 33.1044V33.925H60.6756C60.6756 33.7844 60.7069 33.6671 60.7694 33.5733C60.8398 33.4717 60.9609 33.4209 61.1328 33.4209H62.6803V33.1396C62.6725 32.7644 62.5904 32.487 62.4341 32.3073C62.2856 32.1275 62.0121 32.0376 61.6135 32.0376C61.2774 32.0376 61.0156 32.0884 60.828 32.19C60.6483 32.2916 60.5193 32.4636 60.4412 32.7058C60.3708 32.9481 60.3357 33.2881 60.3357 33.7257C60.3357 34.1478 60.3787 34.4682 60.4646 34.687C60.5506 34.9059 60.6991 35.0543 60.9101 35.1325C61.1289 35.2028 61.4298 35.238 61.8128 35.238C61.9534 35.238 62.1293 35.2341 62.3403 35.2263C62.5591 35.2185 62.778 35.2107 62.9968 35.2028C63.2234 35.1872 63.4227 35.1716 63.5947 35.1559C63.7666 35.1325 63.876 35.113 63.9229 35.0973V35.2849C63.9229 35.3787 63.9034 35.4803 63.8643 35.5897C63.833 35.6913 63.7588 35.7734 63.6416 35.8359C63.4931 35.9297 63.243 35.9922 62.8913 36.0234C62.5474 36.0547 62.0902 36.0703 61.5197 36.0703ZM67.3117 36.0469C66.8115 36.0469 66.4012 36.0195 66.0808 35.9648C65.7603 35.9101 65.5142 35.8046 65.3422 35.6483C65.1703 35.492 65.0491 35.2615 64.9788 34.9567C64.9163 34.6519 64.885 34.2455 64.885 33.7375L64.8733 30.0799H66.2801V31.3577C66.3191 31.3577 66.3895 31.3538 66.4911 31.346C66.6005 31.3381 66.7255 31.3342 66.8662 31.3342C67.0147 31.3264 67.1632 31.3225 67.3117 31.3225C67.4602 31.3147 67.5969 31.3108 67.722 31.3108C68.3081 31.3108 68.7614 31.385 69.0819 31.5335C69.4023 31.682 69.625 31.9321 69.7501 32.2838C69.8829 32.6277 69.9494 33.0927 69.9494 33.6788C69.9494 34.2337 69.8947 34.6714 69.7852 34.9918C69.6758 35.3044 69.5117 35.5389 69.2929 35.6952C69.074 35.8437 68.7966 35.9414 68.4605 35.9883C68.1323 36.0274 67.7493 36.0469 67.3117 36.0469ZM67.3234 35.2732C67.6517 35.2732 67.8978 35.238 68.062 35.1677C68.2339 35.0895 68.3511 34.9332 68.4136 34.6987C68.484 34.4643 68.5192 34.1048 68.5192 33.6202C68.5192 33.2295 68.4801 32.9247 68.4019 32.7058C68.3238 32.487 68.1987 32.3307 68.0268 32.2369C67.8627 32.1431 67.6399 32.0962 67.3586 32.0962C67.2804 32.0962 67.1866 32.0962 67.0772 32.0962C66.9678 32.0962 66.8584 32.1001 66.749 32.108C66.6396 32.108 66.5419 32.1119 66.4559 32.1197C66.3778 32.1197 66.323 32.1197 66.2918 32.1197V33.925C66.2918 34.2142 66.3035 34.4487 66.327 34.6284C66.3504 34.8082 66.3973 34.9449 66.4676 35.0387C66.538 35.1325 66.6396 35.195 66.7724 35.2263C66.9131 35.2575 67.0968 35.2732 67.3234 35.2732ZM74.0054 33.6554C74.0054 33.0145 74.0953 32.5222 74.2751 32.1783C74.4548 31.8344 74.7127 31.6 75.0488 31.4749C75.3927 31.3421 75.7991 31.2756 76.268 31.2756C76.4087 31.2756 76.5689 31.2834 76.7486 31.2991C76.9362 31.3147 77.1159 31.3381 77.2879 31.3694C77.4598 31.3929 77.6122 31.4241 77.7451 31.4632C77.8779 31.4945 77.9756 31.5296 78.0381 31.5687L77.6865 31.7211V30.0799H79.0932L79.0815 33.6437C79.0815 34.1751 79.0385 34.6011 78.9525 34.9215C78.8666 35.2341 78.722 35.4725 78.5188 35.6366C78.3234 35.7929 78.0538 35.8984 77.7099 35.9531C77.3738 36 76.9518 36.0234 76.4438 36.0234C75.9827 36.0234 75.5919 35.9922 75.2715 35.9297C74.9589 35.8671 74.7088 35.7538 74.5212 35.5897C74.3415 35.4256 74.2086 35.1872 74.1227 34.8746C74.0445 34.562 74.0054 34.1556 74.0054 33.6554ZM76.479 35.2732C76.7369 35.2732 76.944 35.2536 77.1003 35.2146C77.2644 35.1677 77.3856 35.0934 77.4637 34.9918C77.5497 34.8902 77.6083 34.7456 77.6396 34.5581C77.6708 34.3627 77.6865 34.1165 77.6865 33.8195L77.6747 32.1431C77.6122 32.1353 77.5262 32.1314 77.4168 32.1314C77.3074 32.1236 77.1941 32.1158 77.0769 32.108C76.9596 32.1001 76.8502 32.0962 76.7486 32.0962C76.4204 32.0962 76.1586 32.1392 75.9632 32.2252C75.7756 32.3033 75.6388 32.4557 75.5529 32.6824C75.4747 32.909 75.4356 33.2412 75.4356 33.6788C75.4356 34.1321 75.4669 34.4721 75.5294 34.6987C75.5998 34.9254 75.7131 35.0778 75.8694 35.1559C76.0257 35.2341 76.2289 35.2732 76.479 35.2732ZM82.5845 36.0703C82.0687 36.0703 81.6427 36.0391 81.3067 35.9766C80.9706 35.9062 80.7049 35.789 80.5095 35.6249C80.3141 35.4607 80.1734 35.2263 80.0875 34.9215C80.0015 34.6167 79.9585 34.2259 79.9585 33.7492C79.9585 33.1552 80.0367 32.6785 80.193 32.319C80.3571 31.9595 80.6385 31.6977 81.037 31.5335C81.4434 31.3694 82.0061 31.2873 82.7252 31.2873C83.2879 31.2873 83.7372 31.3499 84.0733 31.4749C84.4094 31.6 84.6516 31.7993 84.8001 32.0728C84.9486 32.3385 85.0229 32.6824 85.0229 33.1044V33.925H81.7404C81.7404 33.7844 81.7717 33.6671 81.8342 33.5733C81.9045 33.4717 82.0257 33.4209 82.1976 33.4209H83.7451V33.1396C83.7372 32.7644 83.6552 32.487 83.4989 32.3073C83.3504 32.1275 83.0768 32.0376 82.6783 32.0376C82.3422 32.0376 82.0804 32.0884 81.8928 32.19C81.7131 32.2916 81.5841 32.4636 81.506 32.7058C81.4356 32.9481 81.4005 33.2881 81.4005 33.7257C81.4005 34.1478 81.4434 34.4682 81.5294 34.687C81.6154 34.9059 81.7639 35.0543 81.9749 35.1325C82.1937 35.2028 82.4946 35.238 82.8776 35.238C83.0182 35.238 83.1941 35.2341 83.4051 35.2263C83.6239 35.2185 83.8427 35.2107 84.0616 35.2028C84.2882 35.1872 84.4875 35.1716 84.6595 35.1559C84.8314 35.1325 84.9408 35.113 84.9877 35.0973V35.2849C84.9877 35.3787 84.9682 35.4803 84.9291 35.5897C84.8978 35.6913 84.8236 35.7734 84.7063 35.8359C84.5579 35.9297 84.3078 35.9922 83.9561 36.0234C83.6122 36.0547 83.155 36.0703 82.5845 36.0703ZM87.591 36C87.4582 36 87.3448 35.9844 87.2511 35.9531C87.1573 35.9218 87.0752 35.8632 87.0049 35.7773C86.9345 35.6913 86.8642 35.5623 86.7939 35.3904L85.305 31.3108H86.7821L87.6731 34.0657C87.7278 34.222 87.7825 34.3314 87.8372 34.3939C87.8997 34.4565 88.0052 34.4877 88.1537 34.4877C88.2944 34.0188 88.4312 33.5538 88.564 33.0927C88.6969 32.6238 88.8337 32.1588 88.9743 31.6977C89.0134 31.5804 89.0681 31.4905 89.1385 31.428C89.2088 31.3577 89.3182 31.3225 89.4667 31.3225H90.0294L88.3647 36H87.591ZM92.9795 36.0703C92.4637 36.0703 92.0377 36.0391 91.7017 35.9766C91.3656 35.9062 91.0999 35.789 90.9045 35.6249C90.7091 35.4607 90.5685 35.2263 90.4825 34.9215C90.3965 34.6167 90.3535 34.2259 90.3535 33.7492C90.3535 33.1552 90.4317 32.6785 90.588 32.319C90.7521 31.9595 91.0335 31.6977 91.4321 31.5335C91.8385 31.3694 92.4012 31.2873 93.1202 31.2873C93.6829 31.2873 94.1323 31.3499 94.4683 31.4749C94.8044 31.6 95.0467 31.7993 95.1951 32.0728C95.3436 32.3385 95.4179 32.6824 95.4179 33.1044V33.925H92.1354C92.1354 33.7844 92.1667 33.6671 92.2292 33.5733C92.2996 33.4717 92.4207 33.4209 92.5926 33.4209H94.1401V33.1396C94.1323 32.7644 94.0502 32.487 93.8939 32.3073C93.7454 32.1275 93.4719 32.0376 93.0733 32.0376C92.7372 32.0376 92.4754 32.0884 92.2878 32.19C92.1081 32.2916 91.9791 32.4636 91.901 32.7058C91.8306 32.9481 91.7955 33.2881 91.7955 33.7257C91.7955 34.1478 91.8385 34.4682 91.9244 34.687C92.0104 34.9059 92.1589 35.0543 92.3699 35.1325C92.5887 35.2028 92.8896 35.238 93.2726 35.238C93.4132 35.238 93.5891 35.2341 93.8001 35.2263C94.0189 35.2185 94.2378 35.2107 94.4566 35.2028C94.6832 35.1872 94.8825 35.1716 95.0545 35.1559C95.2264 35.1325 95.3358 35.113 95.3827 35.0973V35.2849C95.3827 35.3787 95.3632 35.4803 95.3241 35.5897C95.2928 35.6913 95.2186 35.7734 95.1014 35.8359C94.9529 35.9297 94.7028 35.9922 94.3511 36.0234C94.0072 36.0547 93.55 36.0703 92.9795 36.0703ZM97.693 36.0469C97.2084 36.0469 96.8606 35.9609 96.6496 35.789C96.4386 35.6092 96.3331 35.2966 96.3331 34.8511V30.6309C96.3331 30.4824 96.3448 30.369 96.3683 30.2909C96.3995 30.2127 96.4542 30.158 96.5324 30.1268C96.6105 30.0955 96.7239 30.0799 96.8724 30.0799H97.775C97.775 30.1033 97.7672 30.1776 97.7516 30.3026C97.7438 30.4277 97.7399 30.5722 97.7399 30.7364V34.6753C97.7399 34.9567 97.775 35.1599 97.8454 35.2849C97.9157 35.4021 98.0486 35.4607 98.2439 35.4607C98.3065 35.4607 98.3807 35.4529 98.4667 35.4373C98.5527 35.4217 98.6074 35.4099 98.6308 35.4021V35.9414C98.5761 35.9492 98.4823 35.9687 98.3495 36C98.2166 36.0313 97.9978 36.0469 97.693 36.0469ZM101.668 36.0703C101.254 36.0703 100.887 36.043 100.566 35.9883C100.246 35.9258 99.9722 35.8124 99.7456 35.6483C99.5268 35.4764 99.3587 35.2302 99.2415 34.9098C99.1243 34.5893 99.0657 34.1751 99.0657 33.6671C99.0657 33.1591 99.1243 32.7449 99.2415 32.4245C99.3587 32.1041 99.5268 31.8618 99.7456 31.6977C99.9722 31.5257 100.246 31.4124 100.566 31.3577C100.887 31.2952 101.254 31.2639 101.668 31.2639C102.09 31.2639 102.458 31.2952 102.77 31.3577C103.091 31.4124 103.36 31.5257 103.579 31.6977C103.798 31.8618 103.962 32.1041 104.071 32.4245C104.189 32.7449 104.247 33.1591 104.247 33.6671C104.247 34.1829 104.189 34.6011 104.071 34.9215C103.962 35.2341 103.798 35.4764 103.579 35.6483C103.36 35.8124 103.091 35.9258 102.77 35.9883C102.45 36.043 102.082 36.0703 101.668 36.0703ZM101.668 35.3552C101.918 35.3552 102.125 35.3122 102.289 35.2263C102.461 35.1403 102.59 34.9762 102.676 34.7339C102.762 34.4916 102.805 34.136 102.805 33.6671C102.805 33.1982 102.762 32.8426 102.676 32.6003C102.59 32.3581 102.461 32.1939 102.289 32.108C102.125 32.022 101.918 31.979 101.668 31.979C101.426 31.979 101.219 32.022 101.047 32.108C100.875 32.1939 100.742 32.3581 100.648 32.6003C100.554 32.8426 100.508 33.1982 100.508 33.6671C100.508 34.136 100.554 34.4916 100.648 34.7339C100.742 34.9762 100.875 35.1403 101.047 35.2263C101.219 35.3122 101.426 35.3552 101.668 35.3552ZM105.286 37.2544L105.298 32.2486C105.298 32.0533 105.294 31.8774 105.286 31.7211C105.286 31.5648 105.279 31.471 105.263 31.4397C105.326 31.4241 105.451 31.4085 105.638 31.3929C105.826 31.3694 106.041 31.3499 106.283 31.3342C106.533 31.3186 106.783 31.3069 107.033 31.2991C107.291 31.2834 107.522 31.2756 107.725 31.2756C108.42 31.2756 108.964 31.3577 109.354 31.5218C109.753 31.6859 110.03 31.9477 110.187 32.3073C110.351 32.6589 110.425 33.12 110.409 33.6906C110.394 34.2689 110.316 34.7339 110.175 35.0856C110.042 35.4295 109.819 35.6757 109.507 35.8242C109.202 35.9648 108.78 36.0352 108.241 36.0352C107.912 36.0352 107.627 36.0039 107.385 35.9414C107.15 35.8789 106.963 35.7773 106.822 35.6366C106.681 35.4881 106.58 35.3005 106.517 35.0739L106.728 34.9567V37.2544H105.286ZM107.866 35.2615C108.272 35.2615 108.553 35.1325 108.71 34.8746C108.874 34.6089 108.956 34.1829 108.956 33.5968C108.971 33.0263 108.893 32.6277 108.721 32.401C108.549 32.1666 108.233 32.0493 107.772 32.0493C107.67 32.0493 107.553 32.0533 107.42 32.0611C107.287 32.0689 107.158 32.0806 107.033 32.0962C106.908 32.1041 106.807 32.1119 106.728 32.1197V34.0305C106.728 34.3666 106.775 34.6245 106.869 34.8043C106.963 34.9762 107.092 35.0973 107.256 35.1677C107.428 35.2302 107.631 35.2615 107.866 35.2615ZM113.895 36.0703C113.38 36.0703 112.954 36.0391 112.618 35.9766C112.282 35.9062 112.016 35.789 111.82 35.6249C111.625 35.4607 111.484 35.2263 111.398 34.9215C111.312 34.6167 111.269 34.2259 111.269 33.7492C111.269 33.1552 111.348 32.6785 111.504 32.319C111.668 31.9595 111.949 31.6977 112.348 31.5335C112.754 31.3694 113.317 31.2873 114.036 31.2873C114.599 31.2873 115.048 31.3499 115.384 31.4749C115.72 31.6 115.963 31.7993 116.111 32.0728C116.26 32.3385 116.334 32.6824 116.334 33.1044V33.925L113.051 33.925C113.051 33.7844 113.083 33.6671 113.145 33.5733C113.216 33.4717 113.337 33.4209 113.509 33.4209L115.056 33.4209V33.1396C115.048 32.7644 114.966 32.487 114.81 32.3073C114.661 32.1275 114.388 32.0376 113.989 32.0376C113.653 32.0376 113.391 32.0884 113.204 32.19C113.024 32.2916 112.895 32.4636 112.817 32.7058C112.747 32.9481 112.711 33.2881 112.711 33.7257C112.711 34.1478 112.754 34.4682 112.84 34.687C112.926 34.9059 113.075 35.0543 113.286 35.1325C113.505 35.2028 113.806 35.238 114.189 35.238C114.329 35.238 114.505 35.2341 114.716 35.2263C114.935 35.2185 115.154 35.2107 115.373 35.2028C115.599 35.1872 115.798 35.1716 115.97 35.1559C116.142 35.1325 116.252 35.113 116.299 35.0973V35.2849C116.299 35.3787 116.279 35.4803 116.24 35.5897C116.209 35.6913 116.135 35.7734 116.017 35.8359C115.869 35.9297 115.619 35.9922 115.267 36.0234C114.923 36.0547 114.466 36.0703 113.895 36.0703ZM118.691 36H117.695C117.546 36 117.437 35.9648 117.366 35.8945C117.296 35.8163 117.261 35.6678 117.261 35.449V31.557C117.464 31.5023 117.753 31.4437 118.128 31.3811C118.511 31.3186 118.949 31.2873 119.441 31.2873C119.949 31.2873 120.348 31.3186 120.637 31.3811C120.926 31.4437 121.137 31.5335 121.27 31.6508C121.411 31.768 121.501 31.9165 121.54 32.0962C121.579 32.276 121.598 32.4909 121.598 32.741H120.238V32.5769C120.231 32.3893 120.188 32.2525 120.109 32.1666C120.031 32.0806 119.934 32.0298 119.816 32.0142C119.699 31.9907 119.582 31.979 119.465 31.979C119.293 31.979 119.136 31.9985 118.996 32.0376C118.863 32.0689 118.761 32.1158 118.691 32.1783V36Z" fill="#6D00FC"/>
<path d="M0 24.9145L10.8954 18.1098L0 11.305V6.19167L15.3008 16.1824V20.0371L0 30.0279V24.9145Z" fill="#6D00FC"/>
<path d="M20.7992 16.1824L36.1 6.19167V11.305L25.2046 18.1098L36.1 24.9145V30.0279L20.7992 20.0371V16.1824Z" fill="#6D00FC"/>
<path d="M24.8294 36.1L18.0246 25.2046L11.2199 36.1H6.10655L16.0973 20.7992H19.952L29.9427 36.1H24.8294Z" fill="#6D00FC"/>
<path d="M16.0973 15.3008L6.10655 1.04191e-06L11.2199 8.184e-07L18.0246 10.8954L24.8294 2.23513e-07L29.9427 0L19.952 15.3008H16.0973Z" fill="#6D00FC"/>
</svg>
