<svg width="80" height="28" viewBox="0 0 80 28" fill="none" xmlns="http://www.w3.org/2000/svg">
<path d="M9.612 14.652L7.956 10.908L7.2 14.652L4.752 27H0.756L6.228 0.539999H6.66L13.932 14.832L16.092 19.62L18.252 14.832L25.38 0.539999H25.776L31.464 27H27.504L24.84 14.652L24.048 10.908L22.608 14.652L16.2 27H15.984L9.612 14.652ZM42.0671 27.36C40.5791 27.36 39.1991 27.012 37.9271 26.316C36.6791 25.596 35.6711 24.588 34.9031 23.292C34.1591 21.972 33.7871 20.436 33.7871 18.684C33.7871 16.956 34.1111 15.444 34.7591 14.148C35.4311 12.852 36.3791 11.844 37.6031 11.124C38.8271 10.404 40.2671 10.044 41.9231 10.044C42.8831 10.044 43.7831 10.212 44.6231 10.548C45.4631 10.884 46.1711 11.304 46.7471 11.808C47.3231 12.288 47.7071 12.768 47.8991 13.248L47.9711 10.476H51.6791V27H48.0071L47.9351 24.084C47.5271 24.948 46.7831 25.716 45.7031 26.388C44.6231 27.036 43.4111 27.36 42.0671 27.36ZM42.7151 24.12C44.0831 24.12 45.2351 23.652 46.1711 22.716C47.1071 21.756 47.5751 20.508 47.5751 18.972V18.72C47.5751 17.688 47.3591 16.764 46.9271 15.948C46.4951 15.132 45.9071 14.496 45.1631 14.04C44.4191 13.584 43.6031 13.356 42.7151 13.356C41.1791 13.356 39.9911 13.86 39.1511 14.868C38.3111 15.852 37.8911 17.136 37.8911 18.72C37.8911 20.328 38.2991 21.636 39.1151 22.644C39.9551 23.628 41.1551 24.12 42.7151 24.12ZM60.9396 18.432L55.1436 10.476H59.7516L63.1356 15.588L66.3396 10.476H71.0556L65.2236 18.216L71.5596 27H67.0956L63.1716 21.168L59.4276 27H54.7476L60.9396 18.432Z" fill="white"/>
<path d="M77.22 27.36C76.5 27.36 75.888 27.12 75.384 26.64C74.88 26.136 74.628 25.524 74.628 24.804C74.628 24.06 74.868 23.448 75.348 22.968C75.852 22.464 76.476 22.212 77.22 22.212C77.964 22.212 78.576 22.464 79.056 22.968C79.56 23.448 79.812 24.06 79.812 24.804C79.812 25.524 79.56 26.136 79.056 26.64C78.576 27.12 77.964 27.36 77.22 27.36Z" fill="#6C42F9"/>
</svg>
